<svg width="19" height="19" viewBox="0 0 19 19" fill="none" xmlns="http://www.w3.org/2000/svg">
<path d="M9.49999 11.3327C7.84699 11.3327 6.50195 9.98844 6.50195 8.33544C6.50195 6.68244 7.84779 5.33582 9.49999 5.33582C11.1522 5.33582 12.498 6.68165 12.498 8.33386C12.498 9.98607 11.1522 11.3303 9.49999 11.3303V11.3327ZM9.49999 6.5249C8.50249 6.5249 7.68945 7.33715 7.68945 8.33544C7.68945 9.33373 8.50249 10.1444 9.49999 10.1444C10.4975 10.1444 11.3105 9.33294 11.3105 8.33465C11.3105 7.33636 10.4975 6.52332 9.49999 6.52332V6.5249Z" fill="#8899A6"/>
<path d="M16.3811 8.46296C16.3811 4.67087 13.2936 1.58337 9.49994 1.58337C5.70627 1.58337 2.61877 4.67087 2.61877 8.46296C2.61877 9.96871 3.09615 11.3985 3.99865 12.5978L4.00102 12.5962L4.00657 12.6081C5.2954 14.2469 8.97665 17.1657 9.13261 17.2885C9.24186 17.3755 9.37169 17.4175 9.50073 17.4175C9.62978 17.4175 9.75961 17.3755 9.86886 17.2893C10.0248 17.1665 13.7061 14.2492 14.9949 12.6089L15.0004 12.5978L15.002 12.5994C15.9045 11.3992 16.3811 9.97108 16.3811 8.46454V8.46296ZM9.49994 16.063C8.53094 15.2792 5.92161 13.1219 4.94311 11.879C4.19894 10.8894 3.80627 9.70825 3.80627 8.46533C3.80627 5.32558 6.36098 2.77087 9.49994 2.77087C12.6389 2.77087 15.1936 5.32479 15.1936 8.46296C15.1936 9.70587 14.8001 10.887 14.0568 11.8774C13.0783 13.1203 10.4689 15.2768 9.49994 16.0614V16.063Z" fill="#8899A6"/>
</svg>
